<?xml version="1.0" encoding="UTF-8"?>
<svg id="Layer_1" xmlns="http://www.w3.org/2000/svg" xmlns:xlink="http://www.w3.org/1999/xlink" version="1.1" viewBox="0 0 1080 1080">
  <!-- Generator: Adobe Illustrator 29.7.1, SVG Export Plug-In . SVG Version: 2.1.1 Build 8)  -->
  <defs>
    <style>
      .st0 {
        fill: #fff;
      }

      .st1 {
        fill: url(#New_Gradient_Swatch_4);
      }
    </style>
    <linearGradient id="New_Gradient_Swatch_4" data-name="New Gradient Swatch 4" x1="-77.26" y1="173.39" x2="1174.43" y2="916.8" gradientUnits="userSpaceOnUse">
      <stop offset="0" stop-color="#f50"/>
      <stop offset="1" stop-color="#a224ff"/>
    </linearGradient>
  </defs>
  <rect class="st1" width="1080" height="1080"/>
  <g>
    <path class="st0" d="M755.45,205.88c-148.54-94.14-344.7-80.06-477.4,34.35-203.44,175.38-180.94,496.32,42.89,642.32,19.21,11.67,38.93,22.64,59.73,31.28-.7-12.91,3.86-25.45,11.05-35.85,1.57-2.27,6.2-4.41,5.39-7.51-.4-1.53-4.9-4.88-6.33-7.02-5.47-8.2-8.08-17.42-10.68-26.83-171.6-94.41-225.81-315.3-115.25-478.29,71.51-105.43,196.54-159.64,321.68-141.9,218.5,30.98,348.18,264.82,255.75,466.66-30.49,66.58-84.07,122.78-148.83,156.8-.88,12.48-8.72,22.68-15.9,32.42,2.97,3.33,6.27,6.34,8.71,10.12,5.02,7.77,7.2,16.58,8.81,25.39.41,2.26-.11,4.81.06,7.12.9.88,13.45-4.75,15.71-5.8,130.27-60.69,223.37-196.53,230.32-340.11,7.11-146.81-60.79-281.09-184.14-360.94-.81-.52-1.1-1.91-1.58-2.21ZM687.42,807.92c2.35.39,3.87-.35,5.89-1.28,9.83-4.54,28.69-19.12,37.65-26.34,120.48-97.03,146.81-272.69,61.98-401.75-95.33-145.03-294.84-179.6-434.24-76.43-168.68,124.84-160.27,384.7,16.99,498.09,3.38,2.16,7.02,3.89,10.13,6.5l13.7-15.92c.34-3.37-3.37-4.79-4.97-7.22-12.42-18.77-12.22-38.16-2.94-58.25-19.34-15.42-37.15-36.06-50.42-57.21-80.14-127.74-17.59-297.12,124.47-343.99,208.78-68.89,388.44,161.13,271.37,346.4-12.61,19.96-29.43,36.84-46.19,53.22,7.78,14.8,11.01,32.61,4.52,48.55-3.21,7.88-10.08,16.71-16.76,21.84,3.54,3.9,9.17,8.14,8.82,13.79ZM661.63,734.39c-3.21-3.09-8.8-5.64-13.34-5.97l-214.14.03c-20.19,3.74-25.85,29.67-11.03,43.09,4.87,4.41,8.98,4.96,15.49,5.48,66.33,5.22,139.28-3.86,206.3,0,22.32.68,31.64-28.26,16.72-42.62ZM426.76,808.21c-11.91,4.98-18.8,17.06-16.28,30.03.09.45,3.68,7.82,3.93,8.2,2.36,3.55,7.97,7.85,12.13,8.84,73.98,1.86,148.61,2.18,222.55-.17,21.51-8.47,20.61-40.42-2.02-47.13l-220.31.23ZM428.92,886.5c-24.39,7.99-24.92,39.09-1.28,48.23,73.63,1.86,147.87,2.13,221.48-.16,22.6-10.41,19.92-42.01-4.26-48.25l-215.94.18Z"/>
    <path class="st0" d="M755.45,205.88c.48.3.77,1.69,1.58,2.21,123.35,79.85,191.25,214.13,184.14,360.94-6.95,143.59-100.05,279.42-230.32,340.11-2.26,1.05-14.81,6.69-15.71,5.8-.17-2.31.35-4.86-.06-7.12-1.61-8.82-3.79-17.62-8.81-25.39-2.44-3.78-5.74-6.8-8.71-10.12,7.18-9.74,15.02-19.95,15.9-32.42,64.76-34.01,118.34-90.22,148.83-156.8,92.43-201.83-37.25-435.68-255.75-466.66-125.14-17.74-250.16,36.47-321.68,141.9-110.56,162.99-56.35,383.88,115.25,478.29,2.6,9.42,5.21,18.63,10.68,26.83,1.43,2.14,5.93,5.49,6.33,7.02.81,3.09-3.82,5.24-5.39,7.51-7.19,10.4-11.74,22.94-11.05,35.85-20.8-8.65-40.52-19.61-59.73-31.28-223.84-146.01-246.33-466.94-42.89-642.32,132.7-114.4,328.86-128.49,477.4-34.35Z"/>
    <path class="st0" d="M687.42,807.92c.36-5.65-5.28-9.9-8.82-13.79,6.67-5.13,13.55-13.96,16.76-21.84,6.49-15.93,3.26-33.74-4.52-48.55,16.77-16.38,33.58-33.26,46.19-53.22,117.07-185.27-62.59-415.29-271.37-346.4-142.06,46.87-204.61,216.25-124.47,343.99,13.27,21.15,31.07,41.79,50.42,57.21-9.28,20.08-9.48,39.48,2.94,58.25,1.61,2.43,5.32,3.85,4.97,7.22l-13.7,15.92c-3.11-2.6-6.75-4.33-10.13-6.5-177.26-113.4-185.66-373.25-16.99-498.09,139.4-103.17,338.9-68.6,434.24,76.43,84.83,129.06,58.5,304.72-61.98,401.75-8.96,7.22-27.83,21.8-37.65,26.34-2.02.93-3.54,1.67-5.89,1.28Z"/>
    <path class="st0" d="M428.92,886.5l215.94-.18c24.17,6.23,26.86,37.83,4.26,48.25-73.61,2.29-147.85,2.02-221.48.16-23.64-9.14-23.1-40.24,1.28-48.23Z"/>
    <path class="st0" d="M426.76,808.21l220.31-.23c22.63,6.7,23.53,38.66,2.02,47.13-73.94,2.35-148.57,2.03-222.55.17-4.16-.99-9.77-5.29-12.13-8.84-.25-.38-3.85-7.76-3.93-8.2-2.52-12.97,4.37-25.05,16.28-30.03Z"/>
    <path class="st0" d="M661.63,734.39c14.92,14.36,5.6,43.3-16.72,42.62-67.02-3.86-139.97,5.22-206.3,0-6.51-.51-10.62-1.07-15.49-5.48-14.82-13.42-9.16-39.35,11.03-43.09l214.14-.03c4.54.33,10.12,2.88,13.34,5.97Z"/>
  </g>
</svg>